<svg version="1.1" id="Layer_1" xmlns="http://www.w3.org/2000/svg" xmlns:xlink="http://www.w3.org/1999/xlink" x="0px" y="0px"
	 width="100%" viewBox="0 0 528 528" enable-background="new 0 0 528 528" xml:space="preserve">
<path fill="#000000" opacity="1.000000" stroke="none" 
	d="
M286.000000,529.000000 
	C192.022125,529.000000 98.544212,528.979431 5.066455,529.085510 
	C1.788828,529.089233 0.895086,528.628357 0.897494,525.068176 
	C1.014679,351.775909 1.016433,178.483582 0.891335,5.191346 
	C0.888618,1.426938 1.858265,0.914179 5.306768,0.916083 
	C178.432434,1.011654 351.558136,1.011271 524.683777,0.918246 
	C528.106750,0.916407 529.113342,1.391362 529.110596,5.181893 
	C528.983215,178.474121 528.985535,351.766449 529.101440,525.058716 
	C529.103821,528.599548 528.241089,529.091919 524.942993,529.087280 
	C445.462097,528.975220 365.981049,529.000000 286.000000,529.000000 
z"/>
<path fill="#66FFE3" opacity="1.000000" stroke="none" 
	d="
M384.404053,145.873932 
	C390.193237,145.251266 397.197113,142.778259 400.174957,146.016953 
	C402.771271,148.840729 400.980042,155.773743 400.986206,160.891266 
	C401.016632,186.134857 400.937134,211.378830 401.076019,236.621689 
	C401.094269,239.941025 400.529175,241.431458 396.838379,241.075577 
	C393.218170,240.726486 389.538330,240.995850 385.084229,240.600204 
	C383.221466,238.204971 383.345886,236.016190 383.343597,233.866562 
	C383.314545,206.618683 383.319031,179.370789 383.337524,152.122894 
	C383.338745,150.296829 383.316925,148.462708 384.404053,145.873932 
z"/>
<path fill="#66FFE3" opacity="1.000000" stroke="none" 
	d="
M145.595947,240.126038 
	C139.806747,240.748718 132.802826,243.221771 129.825012,239.983017 
	C127.228714,237.159180 129.020004,230.226212 129.013840,225.108688 
	C128.983429,199.865112 129.062851,174.621155 128.923981,149.378311 
	C128.905716,146.059006 129.470871,144.568558 133.161667,144.924423 
	C136.781876,145.273499 140.461716,145.004135 144.915802,145.399780 
	C146.778488,147.795013 146.654083,149.983795 146.656357,152.133423 
	C146.685211,179.381287 146.680954,206.629181 146.662354,233.877060 
	C146.661118,235.703125 146.683105,237.537247 145.595947,240.126038 
z"/>
<path fill="#FE347E" opacity="1.000000" stroke="none" 
	d="
M145.585953,336.144684 
	C139.907211,336.875641 133.205215,338.733948 130.061081,336.191864 
	C126.766159,333.527832 129.077942,326.540100 129.048050,321.454437 
	C128.930664,301.475311 129.113190,281.493958 128.900864,261.516418 
	C128.860275,257.697510 129.916733,256.580688 133.605362,256.929993 
	C137.070877,257.258179 140.591644,257.003082 144.891022,257.378540 
	C146.700562,259.585724 146.642258,261.603607 146.645401,263.591034 
	C146.680557,285.860413 146.675583,308.129791 146.651169,330.399170 
	C146.649353,332.060699 146.631485,333.726654 145.585953,336.144684 
z"/>
<path fill="#FE347E" opacity="1.000000" stroke="none" 
	d="
M384.427795,257.835999 
	C390.109985,257.118591 396.998260,255.224701 399.920837,257.811401 
	C403.269073,260.774872 400.919006,267.809906 400.951233,273.063904 
	C401.072693,292.875977 400.882904,312.690552 401.101074,332.501007 
	C401.143494,336.352356 400.033325,337.407013 396.377594,337.068512 
	C392.910736,336.747559 389.391174,336.995483 385.094116,336.609711 
	C383.297211,334.389282 383.357239,332.371704 383.354156,330.384277 
	C383.319611,308.114960 383.323517,285.845612 383.349060,263.576294 
	C383.350983,261.914734 383.370605,260.248749 384.427795,257.835999 
z"/>
<path fill="#FE347E" opacity="1.000000" stroke="none" 
	d="
M161.835663,129.571625 
	C161.024216,123.982292 161.015549,118.938438 160.981598,113.471542 
	C170.444046,113.032204 179.933350,112.913902 189.418488,113.062386 
	C192.226395,113.106339 193.190445,112.347511 193.069031,109.462830 
	C192.902679,105.510757 191.682953,100.055641 193.717133,97.942787 
	C196.369858,95.187469 201.863297,97.151016 206.126740,97.039986 
	C212.115051,96.884026 218.110580,97.004501 224.887878,97.361252 
	C227.222092,101.735062 226.611923,105.888329 226.339920,109.995811 
	C226.118668,113.336708 223.739014,114.222496 220.822021,114.520744 
	C217.731506,114.836739 214.004227,113.399902 211.692230,115.668732 
	C209.359695,117.957741 210.922867,121.699699 210.527008,124.777664 
	C210.357101,126.098785 210.232941,127.413628 209.258224,128.963058 
	C208.001144,130.054504 206.889099,130.451050 205.726578,130.460358 
	C191.362289,130.575592 176.992889,131.228867 161.835663,129.571625 
z"/>
<path fill="#FE347E" opacity="1.000000" stroke="none" 
	d="
M368.526978,112.981628 
	C368.966309,118.000679 368.980865,123.044945 368.622986,128.890411 
	C367.950226,129.836288 367.654449,130.087021 367.345947,130.102753 
	C352.222565,130.873734 337.099823,131.274826 321.576355,129.661865 
	C318.552521,126.435432 319.496094,122.775246 319.438751,119.376877 
	C319.381989,116.014809 318.063995,114.469734 314.673676,114.618088 
	C303.213623,115.119553 303.258575,113.449791 303.438873,101.994774 
	C303.457245,100.827782 303.565063,99.668259 304.439941,97.797668 
	C314.442627,97.032394 323.932312,97.116089 333.417084,96.939018 
	C336.224365,96.886620 337.190918,97.649437 337.069000,100.535995 
	C336.902100,104.488152 335.682312,109.942818 337.716370,112.056595 
	C340.368713,114.812912 345.862366,112.847137 350.125763,112.960388 
	C356.114105,113.119446 362.109711,113.004562 368.526978,112.981628 
z"/>
<path fill="#FE347E" opacity="1.000000" stroke="none" 
	d="
M225.022568,97.024689 
	C225.122299,91.909271 223.264969,85.205750 225.808167,82.061066 
	C228.473145,78.765808 235.462067,81.077927 240.548843,81.048050 
	C260.532043,80.930679 280.517548,81.116089 300.499084,80.899040 
	C304.349396,80.857216 305.407867,81.963982 305.068665,85.622421 
	C304.747192,89.089996 304.995758,92.610405 304.974243,96.577988 
	C304.954834,97.048393 305.000061,97.001053 305.022949,96.977631 
	C302.997131,98.814034 300.443878,98.684135 297.956421,98.687866 
	C275.986237,98.720787 254.016037,98.720078 232.045883,98.687561 
	C229.892853,98.684380 227.693954,98.795708 225.351730,97.258209 
	C224.954193,96.954201 224.999954,97.001030 225.022568,97.024689 
z"/>
<path fill="#FE347E" opacity="1.000000" stroke="none" 
	d="
M288.161438,448.423523 
	C288.876282,454.092102 290.735046,460.791595 288.194122,463.937378 
	C285.531128,467.234283 278.546967,464.865570 273.459991,464.953094 
	C263.974243,465.116333 254.479813,464.844788 244.997253,465.082855 
	C241.615891,465.167725 240.716919,464.054474 240.941025,460.877350 
	C241.198059,457.233093 241.004562,453.557037 241.382202,449.099548 
	C242.346741,447.989441 242.966354,447.667389 243.624741,447.653381 
	C258.208801,447.343506 272.794464,446.868927 288.161438,448.423523 
z"/>
<path fill="#FE347E" opacity="1.000000" stroke="none" 
	d="
M368.148224,368.418457 
	C368.967438,378.524231 368.907440,388.094757 369.050232,397.662262 
	C369.087830,400.182251 368.468170,401.203827 365.771332,401.054626 
	C361.823456,400.836212 357.854675,400.995117 353.096191,400.611481 
	C350.460449,390.728302 351.428070,381.160431 351.715912,371.618988 
	C351.799500,368.847290 353.912964,367.687958 356.485046,367.535065 
	C360.110596,367.319580 363.748383,367.049622 368.148224,368.418457 
z"/>
<path fill="#FE347E" opacity="1.000000" stroke="none" 
	d="
M177.581543,400.148346 
	C173.085815,400.967773 169.104248,400.730164 165.173538,401.073975 
	C161.523254,401.393250 160.839462,399.945557 160.923782,396.622986 
	C161.149750,387.719360 161.004517,378.806305 161.388550,369.097321 
	C165.777908,366.742493 169.921432,367.349976 174.020294,367.617035 
	C177.017349,367.812225 178.417587,369.804993 178.458694,372.613251 
	C178.589127,381.525360 179.157913,390.446899 177.581543,400.148346 
z"/>
<path fill="#FE347E" opacity="1.000000" stroke="none" 
	d="
M161.024719,368.977478 
	C157.088486,368.969879 153.106445,368.730957 149.175201,369.074066 
	C145.526260,369.392548 144.839127,367.948639 144.923615,364.623749 
	C145.149918,355.719116 145.004242,346.805023 145.025757,337.423218 
	C145.045197,336.951721 144.999954,336.999023 144.977081,337.022400 
	C149.580002,334.154694 154.533539,335.216095 159.418640,335.947510 
	C161.034363,336.189453 162.134933,337.549896 162.205826,339.100159 
	C162.650482,348.823120 163.799530,358.572327 161.263092,368.642578 
	C160.954193,369.045807 161.001053,369.000061 161.024719,368.977478 
z"/>
<path fill="#FE347E" opacity="1.000000" stroke="none" 
	d="
M384.977448,336.975311 
	C384.969574,346.522217 384.908417,356.093872 385.050354,365.662537 
	C385.087769,368.183655 384.466766,369.203705 381.770386,369.054626 
	C377.822021,368.836334 373.852783,368.995392 369.422058,368.974243 
	C368.951630,368.954834 368.998962,369.000061 369.022400,369.022949 
	C368.001801,367.885101 367.480286,366.496674 367.433502,364.963409 
	C367.190430,357.002808 367.197845,349.040558 367.426270,341.080139 
	C367.528320,337.523193 369.366180,335.497009 372.987244,335.440094 
	C376.763794,335.380737 380.620972,334.614166 384.642578,336.736908 
	C385.045807,337.045807 385.000061,336.998962 384.977448,336.975311 
z"/>
<path fill="#66FFE3" opacity="1.000000" stroke="none" 
	d="
M384.971985,240.968719 
	C384.961578,245.991104 384.979309,251.043198 384.985474,256.564087 
	C384.973846,257.032867 385.040161,257.009186 385.034729,256.974396 
	C380.303101,259.998505 375.054321,258.176636 369.562256,258.522827 
	C363.997589,258.512329 358.884613,259.205750 353.427490,257.678833 
	C350.205353,252.626511 351.558899,247.493134 352.025726,241.984467 
	C352.384644,241.259598 352.570740,240.991608 353.161133,240.446960 
	C363.817627,239.014893 374.063690,238.489990 384.671265,240.763794 
	C385.057190,241.057190 385.000153,240.998428 384.971985,240.968719 
z"/>
<path fill="#66FFE3" opacity="1.000000" stroke="none" 
	d="
M144.992966,257.021027 
	C145.019333,251.981812 145.012527,246.930756 145.030930,241.409332 
	C145.056122,240.938965 144.999817,240.998413 144.971313,241.027802 
	C146.234100,239.875443 147.813065,239.439804 149.501053,239.444412 
	C158.070877,239.467758 166.647324,238.976135 175.671967,239.897690 
	C176.417007,240.211197 176.698334,240.374893 177.300476,240.907196 
	C179.153625,246.343597 178.994934,251.426208 177.472565,256.914612 
	C172.280777,259.711182 167.063614,258.300354 161.498199,258.521667 
	C155.909622,258.393951 150.720383,259.575531 145.353485,257.235931 
	C144.970734,256.939606 144.959808,257.009186 144.992966,257.021027 
z"/>
<path fill="#FE347E" opacity="1.000000" stroke="none" 
	d="
M225.581573,432.148315 
	C215.475784,432.967529 205.905243,432.907562 196.337723,433.050262 
	C193.817734,433.087830 192.796173,432.468170 192.945358,429.771362 
	C193.163773,425.823486 193.004868,421.854675 193.388550,417.096191 
	C203.271790,414.460480 212.839661,415.428040 222.381119,415.715942 
	C225.152817,415.799561 226.312042,417.913116 226.464935,420.485138 
	C226.680450,424.110687 226.950409,427.748474 225.581573,432.148315 
z"/>
<path fill="#FE347E" opacity="1.000000" stroke="none" 
	d="
M336.148254,416.418457 
	C336.967712,420.914215 336.730133,424.895782 337.073944,428.826508 
	C337.393250,432.476776 335.945557,433.160583 332.622986,433.076263 
	C323.719360,432.850311 314.806305,432.995483 305.097290,432.611481 
	C302.742462,428.222107 303.349976,424.078644 303.617004,419.979767 
	C303.812256,416.982727 305.804932,415.582397 308.613190,415.541382 
	C317.525269,415.411316 326.446777,414.842346 336.148254,416.418457 
z"/>
<path fill="#FE347E" opacity="1.000000" stroke="none" 
	d="
M304.977448,432.975311 
	C304.969208,437.383820 304.888977,441.819214 305.038239,446.246796 
	C305.111786,448.427673 304.321014,449.102997 302.203583,449.035675 
	C298.103577,448.905396 293.996552,448.995117 289.422058,448.974243 
	C288.951630,448.954834 288.998962,449.000061 289.022400,449.022949 
	C286.156189,444.430786 287.219177,439.481903 287.940369,434.608948 
	C288.213867,432.760956 289.783875,431.832550 291.532806,431.669922 
	C295.793549,431.273682 300.097717,430.572693 304.640015,432.734924 
	C305.045807,433.045807 305.000061,432.998962 304.977448,432.975311 
z"/>
<path fill="#FE347E" opacity="1.000000" stroke="none" 
	d="
M241.024719,448.977448 
	C236.616211,448.969208 232.180862,448.889008 227.753250,449.038300 
	C225.572403,449.111816 224.897018,448.321014 224.964294,446.203583 
	C225.094574,442.103577 225.004883,437.996582 225.025787,433.422119 
	C225.045197,432.951721 224.999954,432.999023 224.977081,433.022400 
	C229.569229,430.156250 234.518112,431.219086 239.391083,431.940338 
	C241.238998,432.213867 242.167542,433.783783 242.330139,435.532776 
	C242.726242,439.793518 243.427246,444.097717 241.265076,448.640015 
	C240.954193,449.045807 241.001053,449.000061 241.024719,448.977448 
z"/>
<path fill="#FE347E" opacity="1.000000" stroke="none" 
	d="
M193.024719,416.977448 
	C188.616211,416.969208 184.180862,416.888947 179.753250,417.038208 
	C177.572403,417.111755 176.896988,416.321014 176.964264,414.203583 
	C177.094543,410.103577 177.004883,405.996582 177.025787,401.422119 
	C177.045197,400.951721 176.999954,400.999023 176.977081,401.022400 
	C181.569229,398.156250 186.518112,399.219055 191.391083,399.940338 
	C193.238998,400.213867 194.167542,401.783783 194.330139,403.532776 
	C194.726242,407.793518 195.427246,412.097717 193.265076,416.640015 
	C192.954193,417.045807 193.001053,417.000061 193.024719,416.977448 
z"/>
<path fill="#FE347E" opacity="1.000000" stroke="none" 
	d="
M352.977448,400.975311 
	C352.969208,405.383820 352.888977,409.819214 353.038239,414.246826 
	C353.111755,416.427673 352.321014,417.102966 350.203583,417.035645 
	C346.103577,416.905396 341.996552,416.995117 337.422058,416.974243 
	C336.951630,416.954834 336.998962,417.000061 337.022400,417.022949 
	C334.156189,412.430786 335.219177,407.481903 335.940369,402.608917 
	C336.213898,400.760956 337.783875,399.832489 339.532806,399.669891 
	C343.793549,399.273621 348.097717,398.572693 352.640015,400.734924 
	C353.045807,401.045807 353.000061,400.998962 352.977448,400.975311 
z"/>
<path fill="#FE347E" opacity="1.000000" stroke="none" 
	d="
M385.486206,97.026581 
	C385.042236,94.733337 385.004730,92.408798 385.002899,90.084221 
	C384.995819,80.999641 385.000000,80.999634 393.976471,80.999992 
	C400.999756,81.000267 400.999756,81.000275 401.000000,88.051476 
	C401.000305,97.000015 401.000305,97.000290 391.887909,96.999786 
	C389.894958,96.999672 387.902039,96.996841 385.486206,97.026581 
z"/>
<path fill="#66FFE3" opacity="1.000000" stroke="none" 
	d="
M368.978973,128.992966 
	C373.243378,129.017563 377.528168,129.169693 381.792694,128.941757 
	C384.462799,128.799057 385.182678,129.728180 385.052216,132.279587 
	C384.850922,136.216766 384.996033,140.171661 384.969055,144.590027 
	C384.943848,145.061020 385.000183,145.001587 385.028687,144.972198 
	C380.445801,147.849609 375.494324,146.777298 370.620270,146.063766 
	C368.772217,145.793228 367.836029,144.228546 367.672241,142.478149 
	C367.273499,138.217209 366.567566,133.912231 368.746094,129.373993 
	C369.060394,128.970734 368.990814,128.959808 368.978973,128.992966 
z"/>
<path fill="#66FFE3" opacity="1.000000" stroke="none" 
	d="
M145.028015,145.031250 
	C145.037735,140.619995 145.120636,136.175278 144.957596,131.739609 
	C144.877502,129.561081 145.609573,128.881546 147.758438,128.958389 
	C151.865646,129.105286 155.981796,129.002243 160.563568,129.014557 
	C161.032883,129.026154 161.009186,128.959839 160.974396,128.965286 
	C163.857285,133.579910 162.778748,138.529877 162.055435,143.401764 
	C161.780991,145.250305 160.203278,146.173096 158.455170,146.332443 
	C154.194519,146.720856 149.888336,147.438858 145.349213,145.252899 
	C144.942810,144.942810 144.999863,145.001541 145.028015,145.031250 
z"/>
<path fill="#FE347E" opacity="1.000000" stroke="none" 
	d="
M369.021637,113.025330 
	C369.029877,108.779182 369.163483,104.501877 368.946747,100.242401 
	C368.812134,97.596794 369.740021,96.825424 372.297394,96.950851 
	C376.229584,97.143707 380.178040,97.005615 384.591492,97.032921 
	C385.063354,97.057899 385.015808,97.012871 384.993225,96.989548 
	C384.980072,101.232262 384.840424,105.505775 385.053619,109.761604 
	C385.186066,112.406319 384.257050,113.173653 381.704041,113.049042 
	C377.775330,112.857292 373.830536,112.995552 369.422150,112.975113 
	C368.951752,112.956421 368.998993,113.001709 369.021637,113.025330 
z"/>
<path fill="#FE347E" opacity="1.000000" stroke="none" 
	d="
M161.025238,112.978615 
	C156.617096,112.969978 152.182190,112.889763 147.754929,113.038162 
	C145.577194,113.111160 144.896439,112.325760 144.964157,110.205727 
	C145.095123,106.106140 145.005188,101.999512 144.981583,97.472153 
	C149.387802,97.033012 153.822495,97.112350 158.249359,96.961655 
	C160.433228,96.887314 161.102325,97.684479 161.035538,99.798309 
	C160.906006,103.897766 160.995239,108.004120 160.975067,112.578064 
	C160.956329,113.048500 161.001602,113.001251 161.025238,112.978615 
z"/>
<path fill="#FE347E" opacity="1.000000" stroke="none" 
	d="
M145.025238,96.978615 
	C142.723770,96.970650 140.398666,96.996719 138.073578,96.997986 
	C128.999664,97.002953 128.999649,97.000031 128.999985,88.010971 
	C129.000244,81.000252 129.000259,81.000252 136.065567,81.000000 
	C145.000031,80.999687 145.000381,80.999687 144.999710,90.128151 
	C144.999573,92.121307 144.995895,94.114464 144.975082,96.578064 
	C144.956329,97.048500 145.001602,97.001251 145.025238,96.978615 
z"/>
<path fill="#000000" opacity="1.000000" stroke="none" 
	d="
M144.968506,145.414459 
	C149.382858,144.961594 153.826660,144.878983 158.261383,145.042404 
	C160.440262,145.122681 161.118622,144.389206 161.041489,142.241562 
	C160.894012,138.135208 160.995621,134.019897 160.966736,129.439514 
	C176.660751,128.982727 192.381882,128.994736 208.877380,129.343750 
	C211.014709,132.501038 210.574051,135.535583 210.520248,138.472488 
	C210.453827,142.099258 212.030045,143.433243 215.573212,143.473175 
	C223.501633,143.562500 231.441589,143.014694 239.774597,143.940643 
	C240.440842,144.215332 240.691879,144.357300 241.237213,144.812286 
	C243.108551,148.410599 242.395889,151.931396 242.495209,155.349350 
	C242.579697,158.257782 243.837341,159.497040 246.717468,159.497238 
	C249.672897,159.497437 252.650223,159.261795 255.979248,160.016434 
	C256.611847,160.298904 256.848419,160.444138 257.350403,160.906616 
	C259.018066,164.383835 258.436676,167.738831 258.472687,171.008667 
	C258.506470,174.076767 259.653229,175.670670 262.869659,175.503662 
	C264.351257,175.426712 265.843506,175.451385 267.328003,175.487320 
	C270.272675,175.558578 271.454865,174.080353 271.492828,171.240234 
	C271.532440,168.275681 271.257965,165.288040 272.046783,161.959320 
	C272.337891,161.335419 272.487854,161.101425 272.965240,160.607452 
	C276.614563,158.943848 280.123505,159.623413 283.549042,159.488983 
	C286.200317,159.384949 287.419983,158.250122 287.478424,155.578964 
	C287.546631,152.460510 287.207977,149.314728 288.097900,145.825989 
	C288.425201,145.188690 288.593842,144.952759 289.122040,144.468262 
	C296.228027,142.615417 303.080933,143.786301 309.876282,143.447220 
	C311.538452,143.364273 313.209534,143.376953 314.872894,143.413361 
	C317.978241,143.481308 319.437988,142.102448 319.435669,138.929886 
	C319.433594,136.111969 319.161652,133.256943 320.455322,129.764404 
	C336.675110,129.030869 352.395355,129.013382 368.588013,128.983307 
	C369.040405,133.245773 369.178406,137.529572 368.942719,141.792679 
	C368.795166,144.461914 369.726868,145.182800 372.278625,145.052185 
	C376.215088,144.850723 380.169281,144.995987 384.586578,144.968506 
	C385.040039,176.666473 385.022919,208.390121 385.031494,240.585480 
	C374.648560,241.045029 364.239929,241.032852 353.363953,241.111877 
	C350.341980,236.230759 351.167480,231.088028 352.367676,225.533478 
	C355.441772,222.660217 358.916077,223.417725 362.146667,223.440552 
	C365.958679,223.467438 367.459015,221.945190 367.422424,218.120789 
	C367.312927,206.670059 367.320465,195.216522 367.417603,183.765656 
	C367.450897,179.844742 365.746185,178.452942 362.014160,178.579315 
	C359.220642,178.673904 356.354095,178.912018 353.294952,177.478363 
	C350.783539,174.444153 351.400452,171.159042 351.436707,168.061874 
	C351.479492,164.404694 350.326874,162.538193 346.311188,162.577545 
	C334.816925,162.690170 323.319672,162.680252 311.825104,162.581909 
	C307.940521,162.548676 306.451935,164.182739 306.579712,167.959335 
	C306.674591,170.763184 306.915802,173.641083 305.474915,176.709641 
	C302.288940,179.291367 298.847717,178.579147 295.606079,178.568451 
	C292.006683,178.556595 290.570282,180.017319 290.592621,183.605148 
	C290.664825,195.208664 290.658386,206.813568 290.596039,218.417160 
	C290.576569,222.039642 292.100586,223.477844 295.655518,223.413177 
	C298.609039,223.359436 301.644897,223.022873 304.838318,224.626556 
	C307.123901,227.566193 306.507172,230.657440 306.640533,233.609818 
	C306.873352,238.764954 307.252502,239.272430 312.510773,239.322769 
	C323.339142,239.426437 334.168793,239.324783 344.997681,239.376083 
	C347.469391,239.387802 350.026215,239.051880 352.653931,240.786194 
	C353.011292,246.023605 353.005646,250.972458 352.999939,256.377472 
	C351.078613,259.037323 348.435425,258.571960 346.004059,258.591095 
	C335.006958,258.677612 324.008728,258.571320 313.011566,258.650909 
	C307.184265,258.693085 306.799286,259.145020 306.633270,264.903351 
	C306.594849,266.235474 306.576385,267.567749 306.528076,268.900116 
	C306.395996,272.544983 304.493225,274.238922 300.898102,274.544678 
	C297.794556,274.808624 294.053223,273.450043 291.740631,275.793274 
	C289.431580,278.132904 290.948700,281.869049 290.544830,284.965485 
	C290.415131,285.959900 290.307983,286.950012 289.645142,288.227173 
	C286.728943,291.436371 283.213409,290.341339 280.007080,290.519928 
	C274.846130,290.807465 274.478271,291.196136 274.542725,297.528229 
	C274.598236,302.982483 274.926270,303.340912 279.967346,303.455627 
	C287.140717,303.618896 287.318878,303.421631 287.475586,295.998993 
	C287.523956,293.708038 287.196594,291.322601 289.032898,288.989197 
	C291.348419,287.093231 293.750397,287.410431 296.049103,287.381775 
	C302.207703,287.304840 308.368347,287.307556 314.526398,287.368835 
	C317.860291,287.401978 319.492249,286.081940 319.336639,282.660797 
	C318.768555,270.169830 321.856384,271.408539 331.466553,271.367493 
	C341.121582,271.326233 350.777039,271.393860 360.432007,271.344879 
	C366.982422,271.311646 367.190979,271.054230 367.365448,264.683258 
	C367.428802,262.370026 367.157013,259.998138 368.693970,257.511444 
	C374.031067,257.109009 379.062012,257.051422 384.561127,256.966736 
	C385.021637,283.327515 385.014038,309.715393 385.026123,336.574524 
	C381.086334,337.030548 377.104645,337.269257 373.173828,336.925934 
	C369.523804,336.607117 368.839417,338.053802 368.923737,341.376831 
	C369.149719,350.280609 369.004272,359.193848 369.026123,368.574585 
	C365.086334,369.030609 361.104645,369.269348 357.173828,368.925964 
	C353.523804,368.607117 352.839386,370.053802 352.923737,373.376831 
	C353.149689,382.280609 353.004272,391.193848 353.026123,400.574554 
	C348.614319,401.031219 344.179626,401.111206 339.752716,400.961761 
	C337.571930,400.888123 336.897125,401.679352 336.964386,403.796234 
	C337.094574,407.895630 337.004913,412.002014 337.026123,416.575684 
	C327.476196,417.030853 317.905457,417.091705 308.337738,416.949707 
	C305.817719,416.912354 304.796234,417.531860 304.945374,420.228729 
	C305.163696,424.176697 305.004608,428.145538 305.026093,432.575653 
	C300.614319,433.031219 296.179626,433.111206 291.752716,432.961761 
	C289.571930,432.888123 288.897095,433.679352 288.964355,435.796234 
	C289.094574,439.895630 289.004913,444.002014 289.026123,448.575684 
	C273.329437,449.032684 257.613037,449.019562 241.425415,449.026123 
	C240.968781,444.614319 240.888824,440.179626 241.038254,435.752716 
	C241.111862,433.571930 240.320572,432.897095 238.203751,432.964325 
	C234.104355,433.094513 229.997955,433.004913 225.424332,433.026123 
	C224.969421,429.086334 224.730713,425.104645 225.074081,421.173828 
	C225.392929,417.523773 223.946121,416.839386 220.623138,416.923737 
	C211.719345,417.149658 202.806137,417.004303 193.425430,417.026123 
	C192.968781,412.614319 192.888840,408.179626 193.038269,403.752716 
	C193.111893,401.571930 192.320587,400.897064 190.203751,400.964325 
	C186.104355,401.094513 181.997971,401.004913 177.424347,401.026123 
	C176.969177,391.476196 176.908325,381.905457 177.050262,372.337738 
	C177.087662,369.817749 176.468155,368.796173 173.771255,368.945343 
	C169.823288,369.163727 165.854431,369.004639 161.424332,369.026123 
	C160.969162,359.476196 160.908340,349.905457 161.050262,340.337738 
	C161.087646,337.817749 160.468155,336.796204 157.771255,336.945404 
	C153.823288,337.163788 149.854431,337.004639 145.424347,337.026123 
	C144.968094,310.658661 144.981995,284.271515 144.983307,257.411987 
	C150.006042,256.965393 155.041367,256.991180 160.538300,257.091797 
	C162.832642,259.043152 162.550858,261.453918 162.619095,263.753387 
	C162.843704,271.322876 162.827850,271.340515 170.613083,271.356293 
	C180.755417,271.376831 190.897873,271.337097 201.040176,271.369843 
	C209.736237,271.397919 210.435944,272.100006 210.636169,280.659088 
	C210.788406,287.166992 210.919647,287.184387 217.448639,287.388336 
	C224.902603,287.621185 232.397354,286.589935 240.168304,288.322266 
	C243.438049,291.204529 242.345505,294.727142 242.519028,297.931946 
	C242.801270,303.144867 243.181168,303.512756 249.473007,303.457306 
	C254.970306,303.408875 255.333435,303.082855 255.455353,298.086670 
	C255.631348,290.874664 255.418793,290.677673 248.055527,290.524963 
	C245.763565,290.477448 243.380630,290.804077 241.031342,289.006653 
	C238.761124,286.056580 239.375473,282.959442 239.416138,280.041656 
	C239.467911,276.327240 238.102753,274.384308 234.214737,274.645355 
	C233.555267,274.689606 232.887878,274.638824 232.224457,274.621460 
	C224.313278,274.414368 223.563553,273.648834 223.372559,265.593384 
	C223.213821,258.898651 223.021988,258.670715 216.237350,258.642090 
	C205.783936,258.597992 195.330185,258.654144 184.876755,258.613098 
	C182.408783,258.603424 179.872192,258.879364 177.296448,257.180878 
	C176.993088,251.831360 176.986130,246.829071 176.888184,241.361847 
	C178.941452,239.235703 181.479675,239.378998 183.967392,239.371872 
	C194.612213,239.341400 205.257187,239.385605 215.901962,239.350311 
	C223.108368,239.326416 223.207916,239.199280 223.364487,232.218628 
	C223.412857,230.061600 223.296646,227.882294 224.419754,225.442780 
	C227.363922,222.767395 230.642258,223.546036 233.724670,223.399445 
	C238.893890,223.153564 239.328598,222.850174 239.364136,217.566864 
	C239.437729,206.626816 239.432587,195.685837 239.367386,184.745712 
	C239.333389,179.041748 238.955856,178.760117 233.014511,178.609222 
	C230.540085,178.546387 228.024979,178.795990 225.298309,177.480743 
	C222.782990,174.448532 223.401505,171.163132 223.436691,168.066132 
	C223.478180,164.413483 222.335831,162.538055 218.315552,162.577484 
	C206.821487,162.690216 195.324387,162.679840 183.829971,162.582001 
	C179.950577,162.548981 178.450928,164.173264 178.579590,167.954742 
	C178.674973,170.758514 178.915695,173.636322 177.477600,176.705872 
	C174.290054,179.293762 170.844772,178.578827 167.600357,178.567444 
	C163.987030,178.554764 162.569656,180.039429 162.591934,183.620285 
	C162.664185,195.235458 162.657227,206.852020 162.595963,218.467224 
	C162.576553,222.147034 164.222031,223.464890 167.722656,223.413437 
	C170.678513,223.369980 173.720016,223.013840 176.906860,224.689148 
	C179.407196,230.036057 179.195221,235.126999 177.229874,240.629913 
	C166.579056,241.013489 156.232635,241.009644 145.414520,241.031494 
	C144.959946,209.333496 144.977066,177.609818 144.968506,145.414459 
z"/>
<path fill="#000000" opacity="1.000000" stroke="none" 
	d="
M224.973877,97.424309 
	C251.337234,96.967331 277.720276,96.980461 304.574554,96.973900 
	C305.030792,97.619278 304.992462,98.284775 305.004517,98.949356 
	C305.085632,103.418976 303.575134,109.041206 305.724121,112.028099 
	C307.801392,114.915306 313.771484,112.867233 318.020691,112.926445 
	C320.500977,112.961006 321.126770,113.836174 321.040039,116.132805 
	C320.889496,120.119293 320.995331,124.115463 320.974243,128.577972 
	C320.954834,129.048370 321.000061,129.001053 321.022949,128.977631 
	C319.158264,130.688309 316.797180,130.582733 314.487335,130.604446 
	C308.204742,130.663483 301.920349,130.686523 295.639404,130.607956 
	C292.075195,130.563385 290.536652,131.984131 290.587952,135.598297 
	C290.629547,138.524323 291.143005,141.580811 289.229553,144.686127 
	C288.954193,145.045807 289.000000,145.000000 289.022888,144.977097 
	C286.507751,147.169800 283.401154,146.463882 280.476654,146.566437 
	C274.960999,146.759872 274.736633,146.975876 274.569794,152.607590 
	C274.492249,155.225845 274.990479,157.941330 273.221619,160.706680 
	C272.954193,161.045807 273.000000,161.000000 273.022888,160.977097 
	C268.044891,163.704437 262.911163,163.072510 257.348450,161.254654 
	C256.954193,160.954193 257.000000,161.000000 257.022888,161.022903 
	C254.830124,158.507767 255.536072,155.401169 255.433502,152.476654 
	C255.240082,146.960983 255.024170,146.736649 249.392426,146.569778 
	C246.774155,146.492233 244.058685,146.990417 241.293320,145.221619 
	C240.954193,144.954193 241.000000,145.000000 241.022903,145.022903 
	C239.068466,142.842743 239.448929,140.110992 239.388458,137.495193 
	C239.233276,130.782288 239.150879,130.669739 232.291122,130.628891 
	C226.835083,130.596405 221.378555,130.654312 215.922684,130.603790 
	C213.789505,130.584045 211.597015,130.772919 209.313873,129.229584 
	C208.954193,128.954193 208.999954,129.001022 209.022552,129.024689 
	C209.030365,128.383270 208.992493,127.717758 209.004486,127.053162 
	C209.085098,122.583252 207.573990,116.961617 209.722366,113.973259 
	C211.799698,111.083763 217.769424,113.134033 222.018494,113.073540 
	C224.495743,113.038261 225.127350,112.168762 225.040176,109.869324 
	C224.889069,105.882828 224.995270,101.886574 224.973877,97.424309 
z"/>
<path fill="#FE347E" opacity="1.000000" stroke="none" 
	d="
M368.538269,257.095886 
	C369.000061,260.818787 368.762177,264.490845 369.065735,268.117645 
	C369.380066,271.873199 368.374268,273.201782 364.287445,273.108795 
	C351.345520,272.814362 338.391266,273.104065 325.445038,272.927521 
	C322.173523,272.882904 320.633392,273.417938 320.910248,277.153931 
	C321.188019,280.902496 322.173401,285.997192 320.235687,288.149750 
	C317.925629,290.715942 312.748871,288.868011 308.821686,288.959900 
	C302.516907,289.107391 296.206024,288.995453 289.472961,289.018311 
	C289.032379,288.378906 288.992859,287.713898 289.004608,287.049835 
	C289.083527,282.582581 287.572235,276.967102 289.717224,273.976715 
	C291.793274,271.082458 297.757019,273.140320 302.002563,273.072754 
	C304.453003,273.033783 305.320984,272.202637 305.001709,269.890320 
	C304.979187,269.727264 304.995056,269.558197 305.000275,269.392120 
	C305.124420,265.439606 303.745789,260.147125 305.764252,257.881866 
	C308.158813,255.194550 313.571869,257.093658 317.665466,257.044891 
	C329.132904,256.908356 340.602905,256.984589 352.535919,256.905273 
	C358.025452,256.897461 363.050964,256.961304 368.538269,257.095886 
z"/>
<path fill="#FE347E" opacity="1.000000" stroke="none" 
	d="
M176.537750,256.904297 
	C191.623352,256.889130 206.247253,257.030518 220.869537,256.931519 
	C223.996033,256.910370 225.193039,257.569275 225.110672,260.975403 
	C225.016479,264.871460 223.206650,270.080322 225.941650,272.351013 
	C228.236359,274.256195 233.250854,273.180176 237.026398,272.919708 
	C240.453445,272.683319 241.270218,274.002747 241.057053,277.138000 
	C240.809570,280.778107 240.995361,284.447632 241.018265,288.528076 
	C231.744827,288.967804 222.443832,288.869568 213.148987,289.064362 
	C210.055466,289.129150 208.374008,288.479950 208.996414,285.051605 
	C209.025589,284.890869 209.001266,284.720184 208.999878,284.554138 
	C208.903259,273.000000 208.903244,273.000061 197.514114,273.000000 
	C186.554688,272.999939 175.594315,272.922546 164.636475,273.054596 
	C161.938950,273.087097 160.752487,272.488159 160.941391,269.533447 
	C161.184555,265.729828 161.000137,261.898834 160.999908,257.623108 
	C166.025101,257.102692 171.050293,257.038818 176.537750,256.904297 
z"/>
<path fill="#FFFFEB" opacity="1.000000" stroke="none" 
	d="
M352.130432,224.407104 
	C352.946686,230.028717 352.969330,235.126343 352.944275,240.713501 
	C352.896576,241.203049 352.981659,241.157303 352.999329,241.116028 
	C338.271667,241.049835 323.525513,240.937088 308.781677,241.073196 
	C305.791504,241.100800 304.664307,240.482025 304.926910,237.299026 
	C305.239227,233.513809 305.003754,229.683426 305.398499,225.081055 
	C306.381531,223.979263 307.001434,223.662827 307.659058,223.649185 
	C322.220093,223.346436 336.782684,222.881378 352.130432,224.407104 
z"/>
<path fill="#FFFFEB" opacity="1.000000" stroke="none" 
	d="
M224.130432,224.407089 
	C224.949341,229.081985 224.726105,233.254105 225.078049,237.377151 
	C225.363235,240.718262 223.960358,241.086746 221.123520,241.060501 
	C206.676483,240.926758 192.227585,240.994690 177.288269,240.944458 
	C176.797211,240.896896 176.842926,240.981949 176.884201,240.999634 
	C176.952209,235.968658 176.978928,230.919998 177.398499,225.080414 
	C178.381531,223.979233 179.001450,223.662827 179.659058,223.649185 
	C194.220108,223.346436 208.782684,222.881378 224.130432,224.407089 
z"/>
<path fill="#FFFFEB" opacity="1.000000" stroke="none" 
	d="
M352.396393,177.890076 
	C357.079346,177.050644 361.248505,177.271652 365.369324,176.922379 
	C368.691467,176.640823 369.091766,178.010651 369.062164,180.864197 
	C368.922607,194.306030 368.909943,207.751175 369.070190,221.192551 
	C369.105469,224.151306 368.537109,225.346725 365.312683,225.074539 
	C361.522308,224.754578 357.684540,224.996567 353.395691,224.962982 
	C352.924042,224.931107 352.997498,225.000015 353.033722,225.034973 
	C352.030701,223.906754 351.463959,222.526169 351.465820,220.986145 
	C351.482941,206.891174 350.765503,192.788895 352.396393,177.890076 
z"/>
<path fill="#FFFFEB" opacity="1.000000" stroke="none" 
	d="
M305.039185,224.965469 
	C300.927399,224.954010 296.758240,224.731216 292.636932,225.077606 
	C289.325226,225.355927 288.906708,224.006851 288.936920,221.141968 
	C289.078735,207.699982 289.088776,194.254608 288.930542,180.813004 
	C288.895844,177.864624 289.447632,176.650497 292.681915,176.925156 
	C296.472046,177.246964 300.310120,177.003754 304.925232,177.408264 
	C306.552368,179.326828 306.620636,180.995453 306.629639,182.655716 
	C306.695404,194.775711 306.684387,206.895859 306.635559,219.015884 
	C306.628204,220.839569 306.611511,222.686203 305.225647,224.681351 
	C304.930054,225.069931 305.002472,224.999924 305.039185,224.965469 
z"/>
<path fill="#FFFFEB" opacity="1.000000" stroke="none" 
	d="
M224.396393,177.890060 
	C229.079346,177.050644 233.248489,177.271652 237.369324,176.922394 
	C240.691437,176.640808 241.091797,178.010635 241.062164,180.864212 
	C240.922592,194.306046 240.909912,207.751190 241.070190,221.192566 
	C241.105469,224.151398 240.537048,225.346695 237.312668,225.074539 
	C233.522293,224.754578 229.684509,224.996567 225.395660,224.962952 
	C224.924042,224.931061 224.997482,224.999969 225.033707,225.034943 
	C224.030685,223.906738 223.463928,222.526169 223.465759,220.986145 
	C223.482452,206.891174 222.765320,192.788879 224.396393,177.890060 
z"/>
<path fill="#FFFFEB" opacity="1.000000" stroke="none" 
	d="
M177.039185,224.965469 
	C172.927399,224.953995 168.758240,224.731232 164.636917,225.077560 
	C161.325272,225.355865 160.906738,224.006927 160.936951,221.141968 
	C161.078796,207.699982 161.088837,194.254623 160.930603,180.813019 
	C160.895889,177.864639 161.447617,176.650497 164.681915,176.925171 
	C168.472015,177.246994 172.310120,177.003769 176.925201,177.408264 
	C178.552307,179.326828 178.620605,180.995438 178.629654,182.655716 
	C178.695740,194.775711 178.684586,206.895859 178.635651,219.015884 
	C178.628281,220.839569 178.611542,222.686203 177.225647,224.681335 
	C176.930069,225.069931 177.002472,224.999924 177.039185,224.965469 
z"/>
<path fill="#FFFFEB" opacity="1.000000" stroke="none" 
	d="
M305.034485,177.039215 
	C305.045990,172.927155 305.269043,168.757690 304.922394,164.636124 
	C304.643707,161.322479 305.996094,160.906982 308.859314,160.937103 
	C322.302216,161.078568 335.748535,161.089828 349.191040,160.929962 
	C352.147766,160.894806 353.347382,161.459534 353.074646,164.686401 
	C352.754272,168.477005 352.996582,172.315186 352.962952,176.604340 
	C352.931061,177.075974 352.999969,177.002533 353.034973,176.966309 
	C351.627319,178.253998 349.851532,178.620346 347.981659,178.636566 
	C335.327728,178.746338 322.673615,178.748032 310.019745,178.633072 
	C308.513611,178.619385 307.024139,178.422028 305.328369,177.232666 
	C304.930054,176.930069 305.000031,177.002502 305.034485,177.039215 
z"/>
<path fill="#FFFFEB" opacity="1.000000" stroke="none" 
	d="
M177.034515,177.039185 
	C177.045990,172.927109 177.269028,168.757645 176.922379,164.636078 
	C176.643677,161.322372 177.996216,160.906982 180.859344,160.937103 
	C194.302261,161.078552 207.748550,161.089828 221.191040,160.929977 
	C224.147766,160.894821 225.347351,161.459534 225.074600,164.686401 
	C224.754211,168.477005 224.996552,172.315186 224.962952,176.604340 
	C224.931061,177.075958 224.999969,177.002518 225.034943,176.966293 
	C223.627289,178.253952 221.851501,178.620346 219.981674,178.636566 
	C207.327744,178.746307 194.673630,178.748047 182.019745,178.633026 
	C180.513657,178.619339 179.024170,178.422073 177.328369,177.232666 
	C176.930069,176.930069 177.000076,177.002472 177.034515,177.039185 
z"/>
<path fill="#FE347E" opacity="1.000000" stroke="none" 
	d="
M289.425415,145.026108 
	C288.969482,141.086319 289.249786,137.104782 288.922699,133.173782 
	C288.619019,129.523972 290.053955,128.840546 293.376801,128.923523 
	C302.280670,129.145844 311.193817,128.995743 320.574554,128.973892 
	C321.030487,132.913681 320.750214,136.895233 321.077301,140.826233 
	C321.380981,144.476089 319.945984,145.159439 316.623169,145.076477 
	C307.719299,144.854172 298.806122,145.004257 289.425415,145.026108 
z"/>
<path fill="#FFFFEB" opacity="1.000000" stroke="none" 
	d="
M265.971466,257.000000 
	C257.000000,257.000000 256.999939,257.000000 257.000000,248.474304 
	C257.000031,241.644287 257.104645,234.811798 256.944489,227.985550 
	C256.887207,225.545471 257.681152,225.020615 260.027954,224.933685 
	C273.002686,224.453094 273.000000,224.380615 273.000000,237.035858 
	C273.000000,241.533676 273.000031,246.031509 272.999969,250.529327 
	C272.999878,256.999237 272.999847,256.999237 265.971466,257.000000 
z"/>
<path fill="#FE347E" opacity="1.000000" stroke="none" 
	d="
M208.973877,129.424301 
	C218.358810,128.969528 227.765472,129.099945 237.166840,128.932632 
	C240.127518,128.879929 241.312164,129.550079 241.068436,132.725937 
	C240.778900,136.498505 241.004211,140.310577 241.026123,144.575668 
	C231.641174,145.030472 222.234512,144.900024 212.833130,145.067368 
	C209.872345,145.120071 208.687866,144.449783 208.931580,141.274017 
	C209.221085,137.501450 208.995789,133.689362 208.973877,129.424301 
z"/>
<path fill="#FE347E" opacity="1.000000" stroke="none" 
	d="
M272.514374,416.973419 
	C272.957855,418.604828 273.092651,420.275482 272.976654,421.928589 
	C272.724884,425.516846 274.613312,431.042847 272.171234,432.259338 
	C268.556030,434.060120 263.461212,432.864868 258.997986,433.000488 
	C257.022156,433.060516 256.989197,431.800171 256.996124,430.383270 
	C257.016479,426.225250 257.004211,422.067078 256.973419,417.486084 
	C261.992065,417.043732 267.042023,417.024231 272.514374,416.973419 
z"/>
<path fill="#FE347E" opacity="1.000000" stroke="none" 
	d="
M337.471893,353.018250 
	C337.032135,350.718719 337.003601,348.394012 337.002197,346.069275 
	C336.996796,336.999634 337.000000,336.999603 345.990906,336.999969 
	C352.999756,337.000244 352.999756,337.000275 353.000000,344.065582 
	C353.000305,353.000031 353.000305,353.000427 343.874207,352.999664 
	C341.881317,352.999512 339.888458,352.995392 337.471893,353.018250 
z"/>
<path fill="#FE347E" opacity="1.000000" stroke="none" 
	d="
M192.981720,353.471924 
	C195.281296,353.032166 197.606018,353.003601 199.930740,353.002228 
	C209.000351,352.996796 209.000336,353.000000 208.999985,361.990936 
	C208.999710,368.999756 208.999725,368.999756 201.934402,369.000000 
	C192.999985,369.000305 192.999588,369.000305 193.000320,359.874237 
	C193.000473,357.881348 193.004593,355.888489 192.981720,353.471924 
z"/>
<path fill="#FE347E" opacity="1.000000" stroke="none" 
	d="
M272.528595,352.981689 
	C272.967834,354.618927 273.095428,356.289337 272.977112,357.942078 
	C272.720428,361.528046 274.616364,367.047760 272.164948,368.266968 
	C268.548981,370.065430 263.455322,368.867401 258.992584,369.000244 
	C257.013824,369.059143 256.989777,367.791870 256.996368,366.379181 
	C257.015778,362.222534 257.004181,358.065704 256.973419,353.486084 
	C261.996552,353.044434 267.050964,353.025635 272.528595,352.981689 
z"/>
<path fill="#FE347E" opacity="1.000000" stroke="none" 
	d="
M336.978333,352.974548 
	C336.970490,355.276031 336.996735,357.601105 336.998016,359.926208 
	C337.002930,369.000366 337.000000,369.000366 328.011169,369.000000 
	C321.000244,368.999725 321.000275,368.999725 321.000031,361.934662 
	C320.999725,353.000000 320.999695,352.999634 330.127960,353.000275 
	C332.121124,353.000397 334.114258,353.004089 336.577820,353.024780 
	C337.048218,353.043457 337.000977,352.998169 336.978333,352.974548 
z"/>
<path fill="#FE347E" opacity="1.000000" stroke="none" 
	d="
M288.978333,288.974548 
	C288.970459,291.276031 288.996704,293.601105 288.997986,295.926208 
	C289.002930,305.000366 289.000000,305.000397 280.011169,305.000031 
	C273.000244,304.999756 273.000244,304.999725 273.000000,297.934662 
	C272.999695,289.000000 272.999695,288.999634 282.127960,289.000275 
	C284.121124,289.000427 286.114258,289.004089 288.577820,289.024780 
	C289.048218,289.043457 289.000977,288.998169 288.978333,288.974548 
z"/>
<path fill="#FE347E" opacity="1.000000" stroke="none" 
	d="
M241.018280,400.528076 
	C238.718704,400.967834 236.393982,400.996399 234.069260,400.997803 
	C224.999634,401.003235 224.999619,401.000031 224.999985,392.009064 
	C225.000259,385.000244 225.000275,385.000244 232.065598,385.000000 
	C241.000015,384.999695 241.000412,384.999695 240.999680,394.125763 
	C240.999527,396.118652 240.995422,398.111511 241.018280,400.528076 
z"/>
<path fill="#FE347E" opacity="1.000000" stroke="none" 
	d="
M289.471924,401.018280 
	C289.032166,398.718719 289.003632,396.394012 289.002228,394.069275 
	C288.996826,384.999634 289.000000,384.999603 297.990906,384.999969 
	C304.999756,385.000244 304.999756,385.000275 305.000000,392.065582 
	C305.000305,401.000031 305.000305,401.000458 295.874207,400.999695 
	C293.881317,400.999542 291.888458,400.995392 289.471924,401.018280 
z"/>
<path fill="#FE347E" opacity="1.000000" stroke="none" 
	d="
M240.974518,401.021667 
	C245.220673,401.029907 249.497986,401.163513 253.757462,400.946777 
	C256.402863,400.812195 257.174652,401.739655 257.049133,404.297241 
	C256.856232,408.229431 256.994354,412.177917 256.967072,416.591370 
	C256.942108,417.063232 256.987152,417.015686 257.010468,416.993134 
	C252.767746,416.980042 248.494263,416.840454 244.238419,417.053650 
	C241.593765,417.186127 240.826355,416.257111 240.950958,413.704071 
	C241.142700,409.775360 241.004410,405.830566 241.024780,401.422180 
	C241.043427,400.951752 240.998138,400.998993 240.974518,401.021667 
z"/>
<path fill="#FE347E" opacity="1.000000" stroke="none" 
	d="
M288.978333,400.974548 
	C288.970093,405.220703 288.836578,409.498016 289.053284,413.757477 
	C289.187866,416.402893 288.260345,417.174622 285.702759,417.049103 
	C281.770569,416.856201 277.822083,416.994385 273.408630,416.967102 
	C272.936768,416.942108 272.984314,416.987152 273.006897,417.010468 
	C273.019989,412.767731 273.159546,408.494232 272.946381,404.238403 
	C272.813873,401.593719 273.742889,400.826385 276.295929,400.951019 
	C280.224640,401.142792 284.169434,401.004425 288.577820,401.024780 
	C289.048218,401.043457 289.000977,400.998169 288.978333,400.974548 
z"/>
<path fill="#FE347E" opacity="1.000000" stroke="none" 
	d="
M240.973877,145.424316 
	C245.385696,144.970139 249.820007,145.085373 254.247482,144.959732 
	C256.427338,144.897873 257.101532,145.679459 257.035950,147.796234 
	C256.908966,151.895706 257.003601,156.002045 257.026123,160.575668 
	C252.614304,161.029861 248.179977,160.914642 243.752502,161.040298 
	C241.572571,161.102173 240.898468,160.320374 240.964005,158.203720 
	C241.090927,154.104233 240.996353,149.997910 240.973877,145.424316 
z"/>
<path fill="#FE347E" opacity="1.000000" stroke="none" 
	d="
M273.424316,161.026108 
	C272.970123,156.614319 273.085358,152.180008 272.959686,147.752548 
	C272.897797,145.572647 273.679535,144.898468 275.796204,144.964005 
	C279.895691,145.090927 284.002014,144.996353 288.575653,144.973877 
	C289.029846,149.385696 288.914581,153.820007 289.040283,158.247482 
	C289.102173,160.427429 288.320404,161.101532 286.203766,161.035995 
	C282.104279,160.909058 277.997925,161.003632 273.424316,161.026108 
z"/>
<path fill="#FE347E" opacity="1.000000" stroke="none" 
	d="
M256.973877,161.424301 
	C262.005005,160.967316 267.055786,160.980438 272.576202,160.973877 
	C273.030548,162.617218 273.106506,164.287170 272.981232,165.941864 
	C272.709808,169.528015 274.618103,175.048859 272.162506,176.269440 
	C268.544464,178.067871 263.448822,176.869003 258.984039,176.999786 
	C256.997406,177.057983 256.991821,175.775284 256.996704,174.369186 
	C257.011108,170.210983 256.996704,166.052673 256.973877,161.424301 
z"/>
<path fill="#FE347E" opacity="1.000000" stroke="none" 
	d="
M273.021667,353.025452 
	C273.030212,348.617249 273.110321,344.182281 272.961823,339.754974 
	C272.888794,337.577148 273.674286,336.896454 275.794342,336.964203 
	C279.893951,337.095154 284.000671,337.005249 288.528107,336.981720 
	C288.967194,341.387939 288.887756,345.822601 289.038361,350.249390 
	C289.112701,352.433258 288.315491,353.102295 286.201691,353.035461 
	C282.102325,352.905945 277.996002,352.995239 273.422180,352.975220 
	C272.951782,352.956543 272.999023,353.001831 273.021667,353.025452 
z"/>
<path fill="#FE347E" opacity="1.000000" stroke="none" 
	d="
M240.974518,289.021637 
	C243.275986,289.029510 245.601089,289.003296 247.926178,289.002014 
	C257.000366,288.997040 257.000397,289.000000 257.000031,297.988800 
	C256.999756,304.999756 256.999725,304.999756 249.934677,305.000000 
	C240.999985,305.000305 240.999649,305.000305 241.000305,295.872070 
	C241.000443,293.878906 241.004105,291.885742 241.024796,289.422180 
	C241.043427,288.951752 240.998138,288.998993 240.974518,289.021637 
z"/>
<path fill="#FE347E" opacity="1.000000" stroke="none" 
	d="
M225.018280,320.528076 
	C222.718704,320.967865 220.393982,320.996429 218.069260,320.997803 
	C208.999634,321.003204 208.999649,321.000031 209.000000,312.009064 
	C209.000290,305.000244 209.000275,305.000244 216.065598,305.000000 
	C225.000015,304.999695 225.000397,304.999695 224.999680,314.125763 
	C224.999512,316.118652 224.995407,318.111511 225.018280,320.528076 
z"/>
<path fill="#FE347E" opacity="1.000000" stroke="none" 
	d="
M305.486084,321.026581 
	C305.042145,318.733337 305.004700,316.408752 305.002869,314.084198 
	C304.995789,304.999664 304.999969,304.999634 313.976501,305.000000 
	C320.999756,305.000244 320.999756,305.000275 321.000000,312.051514 
	C321.000305,321.000000 321.000305,321.000305 311.887787,320.999786 
	C309.894836,320.999695 307.901917,320.996826 305.486084,321.026581 
z"/>
<path fill="#FE347E" opacity="1.000000" stroke="none" 
	d="
M224.974518,321.021606 
	C229.382721,321.030182 233.817688,321.110321 238.245010,320.961853 
	C240.422806,320.888763 241.103577,321.674225 241.035858,323.794312 
	C240.904892,327.893921 240.994781,332.000641 241.018280,336.528076 
	C236.612015,336.967163 232.177383,336.887756 227.750565,337.038361 
	C225.566650,337.112701 224.897690,336.315491 224.964447,334.201721 
	C225.093948,330.102325 225.004745,325.996033 225.024780,321.422180 
	C225.043427,320.951752 224.998138,320.998993 224.974518,321.021606 
z"/>
<path fill="#FE347E" opacity="1.000000" stroke="none" 
	d="
M289.021667,337.025452 
	C289.029907,332.779297 289.163483,328.501984 288.946747,324.242523 
	C288.812134,321.597107 289.739655,320.825348 292.297241,320.950867 
	C296.229431,321.143768 300.177917,321.005615 304.591370,321.032898 
	C305.063232,321.057892 305.015686,321.012848 304.993103,320.989532 
	C304.980011,325.232269 304.840424,329.505768 305.053619,333.761597 
	C305.186096,336.406281 304.257111,337.173645 301.704071,337.048981 
	C297.775360,336.857208 293.830566,336.995575 289.422180,336.975220 
	C288.951782,336.956543 288.999023,337.001831 289.021667,337.025452 
z"/>
<path fill="#FE347E" opacity="1.000000" stroke="none" 
	d="
M193.025482,352.978363 
	C190.724014,352.970459 188.398911,352.996704 186.073822,352.997955 
	C176.999649,353.002930 176.999649,353.000000 177.000000,344.011200 
	C177.000275,337.000244 177.000275,337.000244 184.065338,337.000000 
	C193.000015,336.999695 193.000381,336.999695 192.999725,346.127960 
	C192.999573,348.121124 192.995895,350.114258 192.975220,352.577820 
	C192.956573,353.048248 193.001862,353.001007 193.025482,352.978363 
z"/>
<path fill="#FE347E" opacity="1.000000" stroke="none" 
	d="
M240.974518,337.021637 
	C245.220673,337.029877 249.497971,337.163483 253.757462,336.946747 
	C256.402863,336.812164 257.174622,337.739655 257.049133,340.297241 
	C256.856201,344.229431 256.994354,348.177917 256.967072,352.591370 
	C256.942108,353.063232 256.987152,353.015686 257.010468,352.993103 
	C252.767746,352.980011 248.494263,352.840454 244.238434,353.053650 
	C241.593765,353.186127 240.826340,352.257111 240.950943,349.704071 
	C241.142685,345.775360 241.004410,341.830566 241.024780,337.422180 
	C241.043427,336.951752 240.998138,336.998993 240.974518,337.021637 
z"/>
<path fill="#000000" opacity="1.000000" stroke="none" 
	d="
M304.962433,177.402161 
	C320.661926,176.951660 336.393799,176.973251 352.597809,176.962448 
	C353.048370,192.661942 353.026764,208.393799 353.037537,224.597809 
	C337.338074,225.048355 321.606201,225.026764 305.402161,225.037552 
	C304.951630,209.338028 304.973236,193.606140 304.962433,177.402161 
z"/>
<path fill="#000000" opacity="1.000000" stroke="none" 
	d="
M176.962448,177.402161 
	C192.661942,176.951660 208.393799,176.973251 224.597809,176.962448 
	C225.048340,192.661942 225.026764,208.393799 225.037552,224.597809 
	C209.338058,225.048340 193.606201,225.026764 177.402191,225.037552 
	C176.951660,209.338028 176.973236,193.606140 176.962448,177.402161 
z"/>
<path fill="#FFFFEB" opacity="1.000000" stroke="none" 
	d="
M321.404907,193.395874 
	C325.913177,193.039597 330.082001,193.131104 334.239532,192.955109 
	C336.435699,192.862137 336.947693,193.588287 337.065277,195.752350 
	C337.802307,209.313324 337.298676,209.813797 323.735779,209.067337 
	C321.546143,208.946823 320.867676,208.392075 320.956604,206.223099 
	C321.127014,202.065125 321.040649,197.896652 321.404907,193.395874 
z"/>
<path fill="#FFFFEB" opacity="1.000000" stroke="none" 
	d="
M200.028595,193.000000 
	C209.000015,193.000000 209.000015,193.000000 209.000000,201.521576 
	C208.999985,209.000000 208.999985,209.000000 201.471817,209.000000 
	C192.999985,209.000000 192.999985,209.000000 193.000000,200.466644 
	C193.000000,200.133545 192.999985,199.800461 193.000000,199.467361 
	C193.000153,193.000778 193.000153,193.000778 200.028595,193.000000 
z"/>
</svg>